<?xml version="1.0" encoding="utf-8"?>
<!-- Generator: Adobe Illustrator 21.0.0, SVG Export Plug-In . SVG Version: 6.00 Build 0)  -->
<svg version="1.1" id="Layer_1" xmlns="http://www.w3.org/2000/svg" xmlns:xlink="http://www.w3.org/1999/xlink" x="0px" y="0px"
	 viewBox="0 0 24 24" style="enable-background:new 0 0 24 24;" xml:space="preserve">
<style type="text/css">
	.st0{fill:#FFFFFF;}
</style>
<line x1="12.8" y1="9.4" x2="15.9" y2="9.4"/>
<g>
	<path class="st0" d="M13.2,2H14l5.8,5.8C19.9,7.9,20,8.1,20,8.3v0.6"/>
	<line class="st0" x1="20" y1="8.9" x2="20" y2="10.9"/>
	<path class="st0" d="M19.8,7.8L14,2h-0.8h-2H6.8C5.2,2,4,3.2,4,4.8v14.5C4,20.8,5.2,22,6.8,22h10.5c1.5,0,2.8-1.2,2.8-2.8v-8.4v-2
		V8.3C20,8.1,19.9,7.9,19.8,7.8z M13.2,4l4.6,4.6c0.1,0.1,0.1,0.2,0.2,0.3h-4c-0.4,0-0.8-0.3-0.8-0.8V4L13.2,4z M18,19.2
		c0,0.4-0.3,0.8-0.8,0.8H6.8C6.3,20,6,19.7,6,19.2V4.8C6,4.3,6.3,4,6.8,4h4.4v4.1c0,1.5,1.2,2.8,2.8,2.8h4V19.2z"/>
</g>
</svg>
