<?xml version="1.0" encoding="utf-8"?>
<!-- Generator: Adobe Illustrator 21.0.0, SVG Export Plug-In . SVG Version: 6.00 Build 0)  -->
<svg version="1.1" id="Layer_1" xmlns="http://www.w3.org/2000/svg" xmlns:xlink="http://www.w3.org/1999/xlink" x="0px" y="0px"
	 viewBox="0 0 24 24" style="enable-background:new 0 0 24 24;" xml:space="preserve">
<style type="text/css">
	.st0{fill:none;}
	.st1{fill:#FFFFFF;}
</style>
<path class="st0" d="M24,24H0V0"/>
<line x1="12.8" y1="9.4" x2="15.9" y2="9.4"/>
<path class="st1" d="M20.6,3.4H3.4C2.6,3.4,2,4.1,2,4.9v14.3c0,0.8,0.6,1.4,1.4,1.4h17.1c0.8,0,1.4-0.6,1.4-1.4V4.9
	C22,4.1,21.4,3.4,20.6,3.4z M4.9,13.4l2.9-2.9L4.9,7.7l1.4-1.4l4.3,4.3l-4.3,4.3L4.9,13.4z M16.3,14.9h-5.7v-1.4h5.7V14.9z"/>
</svg>
