<?xml version="1.0" encoding="utf-8"?>
<!-- Generator: Adobe Illustrator 21.0.0, SVG Export Plug-In . SVG Version: 6.00 Build 0)  -->
<svg version="1.1" id="Layer_1" xmlns="http://www.w3.org/2000/svg" xmlns:xlink="http://www.w3.org/1999/xlink" x="0px" y="0px"
	 viewBox="0 0 24 24" style="enable-background:new 0 0 24 24;" xml:space="preserve">
<style type="text/css">
	.st0{fill:#FFFFFF;}
</style>
<path class="st0" d="M19.8,7.8L14,2h-0.8h-2H6.8C5.2,2,4,3.2,4,4.8v14.5C4,20.8,5.2,22,6.8,22h10.5c1.5,0,2.8-1.2,2.8-2.8v-8.4v-2
	V8.3C20,8.1,19.9,7.9,19.8,7.8z M18,19.2c0,0.4-0.3,0.8-0.8,0.8H6.8C6.3,20,6,19.7,6,19.2V19c0.9-2.1,2.8-3,5.1-3v2.7l5.5-4.1
	l-5.5-4.1c0,0.1,0,1.8,0,2.8c-2.4,0-4.3,1.4-5.1,3.9V4.8C6,4.3,6.3,4,6.8,4h4.4v4.1c0,1.5,1.2,2.8,2.8,2.8h4V19.2z M14,8.9
	c-0.4,0-0.8-0.3-0.8-0.8V4l4.6,4.6c0.1,0.1,0.1,0.2,0.2,0.3H14z"/>
</svg>
