<?xml version="1.0" encoding="utf-8"?>
<!-- Generator: Adobe Illustrator 21.0.0, SVG Export Plug-In . SVG Version: 6.00 Build 0)  -->
<svg version="1.1" id="Layer_1" xmlns="http://www.w3.org/2000/svg" xmlns:xlink="http://www.w3.org/1999/xlink" x="0px" y="0px"
	 viewBox="0 0 24 24" style="enable-background:new 0 0 24 24;" xml:space="preserve">
<style type="text/css">
	.st0{fill:#FFFFFF;}
	.st1{fill:none;}
</style>
<g>
	<path class="st0" d="M4,19c-0.6,0-1-0.4-1-1L3,6c0-0.6,0.4-1,1-1h5.6l2,2H20c0.6,0,1,0.4,1,1v10c0,0.6-0.4,1-1,1H4z"/>
	<path class="st0" d="M9.2,6l1.4,1.4L11.2,8H12h8v10L4,18V6H9.2 M10,4H4C2.9,4,2,4.9,2,6l0,12c0,1.1,0.9,2,2,2h16c1.1,0,2-0.9,2-2V8
		c0-1.1-0.9-2-2-2h-8L10,4L10,4z"/>
</g>
<path class="st1" d="M0,0h24v24H0V0z"/>
</svg>
