<?xml version="1.0" encoding="utf-8"?>
<!-- Generator: Adobe Illustrator 21.0.0, SVG Export Plug-In . SVG Version: 6.00 Build 0)  -->
<svg version="1.1" id="Layer_1" xmlns="http://www.w3.org/2000/svg" xmlns:xlink="http://www.w3.org/1999/xlink" x="0px" y="0px"
	 viewBox="0 0 24 24" style="enable-background:new 0 0 24 24;" xml:space="preserve">
<style type="text/css">
	.st0{fill:none;}
	.st1{fill:#FFFFFF;}
</style>
<path class="st0" d="M0,0h24v24H0V0z"/>
<path class="st1" d="M13,9.7c0-0.6-0.5-1-1-1s-1,0.5-1,1c0,0.6,0.5,1,1,1S13,10.3,13,9.7z M5.5,2C4.4,2,3.5,2.9,3.5,4.1v15.8
	c0,1.2,0.9,2.1,2.1,2.1h12.9c1.2,0,2.1-0.9,2.1-2.1V4.1c0-1.2-0.9-2.1-2.1-2.1L5.5,2L5.5,2z M12,4.1c3.1,0,5.6,2.5,5.6,5.6
	c0,1.6-0.7,3.1-1.8,4.1c-0.6-0.4-1.1-0.8-1.4-1.1c-0.9-0.9-2.3-0.9-3.2,0c-0.7,0.7-0.8,1.7-0.5,2.5c-2.5-0.6-4.3-2.8-4.3-5.5
	C6.4,6.6,8.9,4.1,12,4.1L12,4.1z M5.5,18.9c0-0.6,0.5-1,1-1s1,0.5,1,1c0,0.6-0.5,1-1,1S5.5,19.5,5.5,18.9z M12.4,13.9
	c0.3-0.3,0.7-0.3,0.9,0c0.1,0.2,4.2,3,4.7,3.5c0.6,0.6,0.6,1.5,0,2.1c-0.6,0.6-1.5,0.6-2.1,0c-0.5-0.5-3.4-4.6-3.5-4.7
	C12.1,14.5,12.1,14.1,12.4,13.9z"/>
</svg>
